<svg xmlns="http://www.w3.org/2000/svg" viewBox="0 0 876 709" width="876" height="709">
	<defs>
		<clipPath clipPathUnits="userSpaceOnUse" id="cp1">
			<path d="M-158 -492L1033 -492L1033 1192L-158 1192Z" />
		</clipPath>
	</defs>
	<style>
		tspan { white-space:pre }
		.shp0 { fill: #231f20 } 
		.shp1 { fill: #ce2129 } 
	</style>
	<g id="Page 1" clip-path="url(#cp1)">
		<path id="Path 1" class="shp0" d="M275.03 633.97L278.64 635.6L280.38 636.59L282.13 637.7L278.95 641.67L277.37 640.04L275.7 638.69L273.92 637.62L272.05 636.79L270.19 636.23L268.24 635.92L266.34 635.84L264.43 635.96L262.09 636.43L259.91 637.18L257.92 638.26L256.14 639.53L254.51 641.08L253.08 642.82L251.81 644.73L250.78 646.87L249.59 650.2L248.8 653.73L248.4 657.38L248.4 661.04L248.84 664.65L249.63 668.1L250.86 671.24L251.65 672.7L252.53 674.05L253.52 675.32L254.59 676.43L255.78 677.38L257.09 678.22L258.48 678.89L259.99 679.41L261.61 679.73L263.32 679.85L265.19 679.76L267.09 679.45L269.15 678.93L271.34 678.14L273.6 677.11L275.98 675.8L278.44 674.25L281.06 672.38L283.64 676.95L280.62 679.33L277.53 681.4L274.23 683.02L272.57 683.7L270.82 684.25L268.6 684.73L266.34 684.97L264.07 685.01L261.85 684.85L259.63 684.49L257.41 683.97L255.22 683.34L253.08 682.54L250.66 681.43L248.44 680.16L246.45 678.77L244.71 677.19L243.16 675.44L241.81 673.58L240.7 671.55L239.75 669.41L238.88 666.79L238.24 664.09L237.88 661.35L237.8 658.58L238 655.84L238.48 653.1L239.23 650.48L240.3 647.9L241.65 645.44L243.2 643.14L244.99 641L247.01 639.01L249.23 637.26L251.65 635.76L254.27 634.53L257.09 633.49L259.31 632.94L261.57 632.54L263.84 632.31L266.1 632.26L268.36 632.42L270.62 632.78L272.84 633.3L275.03 633.97ZM156.73 633.97L160.34 635.6L162.13 636.59L163.83 637.7L160.7 641.67L159.11 640.04L157.4 638.69L155.62 637.62L153.79 636.79L151.89 636.23L149.98 635.92L148.04 635.84L146.13 635.96L143.79 636.43L141.65 637.18L139.66 638.26L137.84 639.53L136.21 641.08L134.78 642.82L133.55 644.73L132.48 646.87L131.29 650.2L130.5 653.73L130.1 657.38L130.14 661.04L130.54 664.65L131.37 668.1L132.6 671.24L133.35 672.7L134.23 674.05L135.22 675.32L136.29 676.43L137.48 677.38L138.79 678.22L140.22 678.89L141.73 679.41L143.31 679.73L145.06 679.85L146.89 679.76L148.83 679.45L150.89 678.93L153.04 678.14L155.3 677.11L157.68 675.8L160.18 674.25L162.76 672.38L165.38 676.95L162.36 679.33L159.23 681.4L155.97 683.02L154.27 683.7L152.56 684.25L150.3 684.73L148.08 684.97L145.81 685.01L143.55 684.85L141.33 684.49L139.15 683.97L136.96 683.34L134.82 682.54L132.36 681.43L130.18 680.16L128.19 678.77L126.41 677.19L124.9 675.44L123.55 673.58L122.4 671.55L121.45 669.41L120.57 666.79L119.98 664.09L119.62 661.35L119.54 658.58L119.7 655.84L120.18 653.1L120.97 650.48L122 647.9L123.35 645.44L124.94 643.14L126.73 641L128.75 639.01L130.97 637.26L133.39 635.76L136.01 634.53L138.79 633.49L141.01 632.94L143.27 632.54L145.54 632.31L147.8 632.26L150.1 632.42L152.32 632.78L154.54 633.3L156.73 633.97ZM43.51 492.26L46.6 491.27L49.74 490.43L52.84 489.84L55.97 489.36L59.1 489.12L62.24 489.01L65.42 489.08L68.55 489.36L71.69 489.8L74.82 490.39L77.95 491.19L81.09 492.14L84.22 493.25L87.36 494.56L90.45 495.99L93.55 497.62L89.66 507.34L87.52 505.39L85.3 503.65L83.03 502.06L80.73 500.67L78.35 499.44L75.97 498.37L73.51 497.46L71.05 496.74L68.59 496.19L66.13 495.75L63.63 495.51L61.17 495.43L58.75 495.51L56.33 495.75L53.91 496.15L51.57 496.66L49.26 497.38L47.04 498.21L44.86 499.2L42.76 500.31L40.73 501.62L38.79 503.01L36.92 504.6L35.17 506.31L33.55 508.13L32.04 510.12L30.69 512.26L29.42 514.48L28.31 516.86L27.36 519.4L26.56 522.02L25.93 524.8L25.33 528.41L24.98 531.87L24.78 535.24L24.82 538.45L25.02 541.51L25.41 544.48L26.01 547.3L26.76 549.96L27.72 552.5L28.79 554.88L30.05 557.14L31.48 559.29L33.03 561.27L34.7 563.09L36.49 564.76L38.47 566.31L40.57 567.7L42.76 568.93L45.06 570.04L47.48 570.95L49.98 571.71L52.56 572.34L55.22 572.78L57.99 573.1L60.81 573.21L63.71 573.21L66.68 573.02L69.7 572.66L72.76 572.14L75.89 571.47L79.03 570.6L82.2 569.56L82.2 537.06L93.55 537.06L94.15 571.51L88.71 574.05L83.43 576.19L78.23 577.98L73.19 579.33L68.27 580.32L63.51 580.96L58.87 581.19L54.42 581.07L50.1 580.59L45.97 579.76L41.96 578.61L38.15 577.06L34.54 575.24L31.09 573.06L27.83 570.52L26.29 569.17L24.78 567.7L22.64 565.4L20.73 562.98L18.98 560.52L17.48 557.93L16.13 555.36L14.98 552.66L14.06 549.96L13.27 547.22L12.71 544.45L12.32 541.63L12.12 538.81L12.08 535.99L12.2 533.21L12.51 530.4L12.95 527.62L13.59 524.88L14.38 522.18L15.33 519.56L16.44 516.94L17.72 514.4L19.1 511.94L20.65 509.6L22.36 507.3L24.18 505.12L26.17 503.05L28.27 501.07L30.49 499.24L32.83 497.54L35.34 495.99L37.95 494.56L40.65 493.33L43.51 492.26ZM217.92 604.57L217.92 612.42L215.62 612.02L213.48 611.91L211.53 612.06L209.75 612.46L208.2 613.1L206.81 613.97L205.62 615.08L204.59 616.43L203.75 617.98L203.12 619.77L202.64 621.79L202.37 623.97L202.25 626.39L202.33 628.97L202.6 631.75L203 634.69L213.04 634.69L213.04 638.85L203.24 638.85L203.24 684.69L194.75 684.69L194.75 638.85L187.13 638.85L187.13 634.69L195.14 634.69L195.38 631.19L195.78 627.9L196.33 624.8L197.09 621.91L197.96 619.25L198.99 616.75L200.18 614.52L201.53 612.5L203.04 610.67L204.71 609.09L206.53 607.74L208.52 606.63L210.62 605.76L212.92 605.12L215.34 604.76L217.92 604.57ZM220.14 634.76L230.06 634.76L230.06 684.53L220.14 684.53L220.14 634.76ZM225.5 609.05L226.61 609.17L227.68 609.49L228.64 610.04L229.47 610.71L230.18 611.55L230.7 612.5L231.02 613.57L231.14 614.73L231.02 615.83L230.7 616.91L230.18 617.86L229.47 618.69L228.64 619.41L227.68 619.92L226.61 620.24L225.5 620.36L224.35 620.24L223.28 619.92L222.33 619.41L221.49 618.69L220.78 617.86L220.26 616.91L219.95 615.83L219.83 614.73L219.95 613.57L220.26 612.5L220.78 611.55L221.49 610.71L222.33 610.04L223.28 609.49L224.35 609.17L225.5 609.05ZM171.37 634.76L181.29 634.76L181.29 684.53L171.37 684.53L171.37 634.76ZM176.73 609.05L177.84 609.17L178.91 609.49L179.86 610.04L180.7 610.71L181.41 611.55L181.93 612.5L182.25 613.57L182.36 614.73L182.25 615.83L181.93 616.91L181.41 617.86L180.7 618.69L179.86 619.41L178.91 619.92L177.84 620.24L176.73 620.36L175.58 620.24L174.51 619.92L173.55 619.41L172.72 618.69L172.01 617.86L171.49 616.91L171.17 615.83L171.05 614.73L171.17 613.57L171.49 612.5L172.01 611.55L172.72 610.71L173.55 610.04L174.51 609.49L175.58 609.17L176.73 609.05ZM185.58 524.44L194.78 524.44L194.67 532.86L194.39 541.74L194.31 546.27L194.35 550.67L194.59 555L195.02 559.09L195.3 560.56L195.7 561.9L196.73 564.29L197.36 565.32L198.08 566.27L198.87 567.07L199.75 567.78L201.57 568.93L203.59 569.64L205.7 570.04L207.8 570.04L209.9 569.64L211.93 568.93L213.79 567.9L214.67 567.26L215.46 566.55L216.17 565.76L216.85 564.92L217.92 562.98L218.59 560.79L218.79 559.6L218.83 558.33L218.83 524.44L229.35 524.44L229.35 575.83L218.83 575.83L218.83 570.91L215.74 572.82L212.68 574.33L209.67 575.4L206.69 576.11L203.83 576.43L201.09 576.35L198.47 575.91L196.06 575.08L193.79 573.89L192.76 573.18L191.77 572.34L190.86 571.47L189.98 570.48L189.19 569.37L188.48 568.21L187.24 565.64L186.33 562.7L185.78 559.44L185.58 555.87L185.58 524.44ZM104.15 528.81L112.96 528.81L112.96 535.31L115.18 533.41L117.4 531.78L119.55 530.51L121.69 529.52L123.79 528.89L125.85 528.53L127.88 528.53L129.9 528.81L129.54 538.17L127.4 537.3L125.42 536.7L123.59 536.43L121.92 536.43L120.42 536.66L119.07 537.14L117.84 537.86L116.77 538.81L115.85 539.92L115.06 541.19L114.39 542.62L113.87 544.2L113.47 545.91L113.19 547.66L112.96 551.47L112.96 578.93L104.15 578.93L104.15 528.81ZM285.74 404.12L295.11 404.12L310.62 441.5L324.27 402.65L332.57 402.65L303.88 481.31L293.44 481.31L304.59 450.99L285.74 404.12ZM222.88 381.34L233 381.34L233 460.39L222.88 460.39L222.88 381.34ZM25.77 373.68L63.55 438.25L101.49 373.68L112.16 460.55L100.06 460.55L92.24 404.16L62.24 460.55L29.54 404.16L23.15 460.55L13.23 460.55L25.77 373.68Z" />
		<path id="Path 2" fill-rule="evenodd" class="shp0" d="M165.54 433.05L165.42 435.75L165.02 438.37L164.39 440.86L163.52 443.33L162.4 445.63L161.09 447.81L159.59 449.84L157.92 451.7L156.05 453.41L154.07 454.95L151.89 456.26L149.63 457.38L147.24 458.29L144.74 458.93L142.16 459.32L139.5 459.48L136.85 459.32L134.27 458.93L131.77 458.29L129.39 457.38L127.12 456.26L124.98 454.95L122.96 453.41L121.09 451.7L119.43 449.84L117.92 447.81L116.61 445.63L115.54 443.33L114.62 440.86L113.99 438.37L113.59 435.75L113.47 433.05L113.59 430.35L113.99 427.73L114.62 425.19L115.54 422.77L116.61 420.47L117.92 418.29L119.43 416.27L121.09 414.4L122.96 412.65L124.98 411.14L127.12 409.84L129.39 408.72L131.77 407.81L134.27 407.17L136.85 406.78L139.5 406.62L142.16 406.78L144.74 407.17L147.24 407.81L149.63 408.72L151.89 409.84L154.07 411.14L156.05 412.65L157.92 414.4L159.59 416.27L161.09 418.29L162.4 420.47L163.52 422.77L164.39 425.19L165.02 427.73L165.42 430.35L165.54 433.05ZM155.82 433.05L155.74 430.87L155.46 428.77L155.06 426.7L154.51 424.75L153.83 422.89L153 421.1L152.09 419.48L151.02 417.97L149.86 416.58L148.59 415.35L147.28 414.28L145.86 413.37L144.35 412.65L142.8 412.14L141.17 411.78L139.5 411.7L137.84 411.78L136.21 412.14L134.66 412.65L133.16 413.37L131.77 414.28L130.42 415.35L129.15 416.58L128 417.97L126.93 419.48L126.01 421.1L125.18 422.89L124.5 424.75L123.95 426.7L123.55 428.77L123.27 430.87L123.2 433.05L123.27 435.23L123.55 437.34L123.95 439.4L124.5 441.34L125.18 443.21L126.01 444.96L126.93 446.62L128 448.13L129.15 449.52L130.42 450.75L131.77 451.82L133.16 452.73L134.66 453.45L136.21 453.96L137.84 454.28L139.5 454.4L141.17 454.28L142.8 453.96L144.35 453.45L145.86 452.73L147.28 451.82L148.59 450.75L149.86 449.52L151.02 448.13L152.09 446.62L153 444.96L153.83 443.21L154.51 441.34L155.06 439.4L155.46 437.34L155.74 435.23L155.82 433.05ZM217.64 436.11L217.52 438.76L217.17 441.42L216.61 443.96L215.86 446.38L214.9 448.73L213.75 450.91L212.44 452.97L210.97 454.84L209.39 456.58L207.64 458.09L205.74 459.44L203.79 460.55L201.69 461.46L199.51 462.1L197.29 462.5L194.98 462.65L192.56 462.5L190.22 462.06L187.96 461.34L185.82 460.39L183.79 459.16L181.85 457.73L180.06 456.07L178.43 454.24L170.06 461.9L170.06 382.85L178.67 382.85L178.67 417.65L180.3 415.87L182.05 414.24L183.95 412.85L185.97 411.7L188.08 410.75L190.26 410.07L192.6 409.64L194.98 409.52L197.29 409.64L199.51 410.03L201.69 410.71L203.79 411.58L205.74 412.73L207.64 414.04L209.39 415.59L210.97 417.29L212.44 419.2L213.75 421.22L214.9 423.41L215.86 425.75L216.61 428.17L217.17 430.75L217.52 433.37L217.64 436.11ZM207.13 436.11L207.05 433.88L206.85 431.78L206.45 429.76L205.98 427.77L205.34 425.91L204.59 424.16L203.71 422.53L202.76 420.99L201.69 419.63L200.54 418.41L199.27 417.33L197.96 416.42L196.61 415.71L195.18 415.19L193.67 414.88L192.17 414.76L190.62 414.84L189.15 415.11L187.8 415.59L186.49 416.19L185.3 416.94L184.19 417.81L183.2 418.8L182.25 419.92L181.45 421.1L180.74 422.37L179.59 425.04L178.91 427.85L178.67 430.67L178.67 441.07L178.87 443.92L179.55 446.78L180.62 449.56L181.33 450.83L182.13 452.06L183.04 453.21L184.03 454.24L185.14 455.16L186.37 455.95L187.64 456.54L189.07 457.02L190.58 457.3L192.17 457.42L193.67 457.3L195.18 456.98L196.61 456.42L197.96 455.71L199.27 454.84L200.54 453.77L201.69 452.53L202.76 451.14L203.71 449.64L204.59 447.97L205.34 446.22L205.98 444.36L206.45 442.41L206.85 440.35L207.05 438.25L207.13 436.11ZM246.69 434.68L246.53 437.73L246.81 440.59L247.45 443.29L248.4 445.75L249.71 447.97L250.46 449L251.29 449.96L252.21 450.83L253.2 451.62L255.34 452.97L257.72 454L260.3 454.64L263.08 454.92L266.02 454.76L269.11 454.12L272.33 453.05L275.62 451.46L278.99 449.4L280.78 451.62L278.68 453.61L276.57 455.39L274.47 456.94L272.37 458.25L270.26 459.32L268.12 460.15L266.02 460.79L263.88 461.19L261.77 461.34L259.63 461.3L257.48 461.07L255.34 460.59L253.2 459.91L251.06 459.04L248.91 457.93L246.73 456.66L245.82 455.99L244.91 455.19L244.07 454.36L243.28 453.45L241.89 451.38L240.74 449.04L239.75 446.54L238.99 443.84L238.44 441.07L238.12 438.17L238 435.27L238.08 432.38L238.36 429.52L238.83 426.78L239.51 424.2L240.38 421.78L241.45 419.59L242.72 417.65L243.91 416.26L245.15 414.95L246.41 413.76L247.76 412.65L249.15 411.7L250.66 410.86L252.21 410.15L253.83 409.59L255.5 409.12L257.29 408.84L259.15 408.68L261.1 408.68L263.12 408.84L265.22 409.16L267.41 409.64L269.71 410.31L271.69 411.02L273.52 411.9L275.15 412.89L276.61 414L277.92 415.27L279.07 416.62L280.11 418.09L280.94 419.63L281.65 421.26L282.21 423.01L282.64 424.83L282.96 426.7L283.12 428.64L283.2 430.63L282.92 434.76L246.69 434.68ZM246.69 429.91L273.28 430.07L273.44 428.64L273.44 427.17L273.32 425.67L273.04 424.16L272.65 422.69L272.17 421.26L270.78 418.53L269.95 417.29L269.03 416.14L268.04 415.15L266.93 414.24L265.78 413.53L264.51 413.01L263.24 412.65L261.89 412.49L260.26 412.57L258.76 412.89L257.33 413.45L256.02 414.16L254.75 415.07L253.68 416.1L252.6 417.29L251.65 418.57L249.99 421.34L248.6 424.28L247.52 427.22L246.69 429.91ZM180.86 549.84L180.74 552.54L180.34 555.16L179.71 557.7L178.83 560.12L177.72 562.42L176.41 564.6L174.9 566.67L173.24 568.53L171.37 570.24L169.39 571.78L167.24 573.1L164.98 574.2L162.56 575.12L160.1 575.75L157.52 576.19L154.86 576.31L152.2 576.19L149.62 575.75L147.12 575.12L144.74 574.2L142.48 573.1L140.34 571.78L138.35 570.24L136.49 568.53L134.82 566.67L133.31 564.6L132 562.42L130.89 560.12L130.02 557.7L129.39 555.16L128.99 552.54L128.87 549.84L128.99 547.1L129.39 544.48L130.02 541.94L130.89 539.52L132 537.22L133.31 535.04L134.82 532.97L136.49 531.11L138.35 529.4L140.34 527.85L142.48 526.54L144.74 525.4L147.12 524.52L149.62 523.85L152.2 523.45L154.86 523.33L157.52 523.45L160.1 523.85L162.56 524.52L164.98 525.4L167.24 526.54L169.39 527.85L171.37 529.4L173.24 531.11L174.9 532.97L176.41 535.04L177.72 537.22L178.83 539.52L179.71 541.94L180.34 544.48L180.74 547.1L180.86 549.84ZM170.62 549.84L170.54 547.58L170.3 545.44L169.9 543.33L169.35 541.35L168.71 539.4L167.92 537.62L167 535.95L165.97 534.4L164.86 532.97L163.67 531.7L162.36 530.63L160.97 529.68L159.55 528.97L158.04 528.41L156.45 528.09L154.86 527.97L153.28 528.09L151.69 528.41L150.18 528.97L148.75 529.68L147.36 530.63L146.05 531.7L144.86 532.97L143.75 534.4L142.72 535.95L141.81 537.62L141.01 539.4L140.38 541.35L139.82 543.33L139.43 545.44L139.19 547.58L139.11 549.84L139.19 552.06L139.43 554.21L139.82 556.31L140.38 558.29L141.01 560.24L141.81 562.02L142.72 563.69L143.75 565.24L144.86 566.67L146.05 567.94L147.36 569.01L148.75 569.96L150.18 570.68L151.69 571.23L153.28 571.55L154.86 571.67L156.45 571.55L158.04 571.23L159.55 570.68L160.97 569.96L162.36 569.01L163.67 567.94L164.86 566.67L165.97 565.24L167 563.69L167.92 562.02L168.71 560.24L169.35 558.29L169.9 556.31L170.3 554.21L170.54 552.06L170.62 549.84Z" />
		<path id="Path 3" fill-rule="evenodd" class="shp0" d="M284.47 548.37L284.35 551.03L284 553.61L283.44 556.11L282.68 558.53L281.69 560.79L280.54 562.98L279.23 564.96L277.76 566.82L276.14 568.53L274.39 570.04L272.49 571.35L270.5 572.46L268.4 573.33L266.21 573.97L263.95 574.36L261.65 574.52L259.27 574.36L256.97 573.97L254.75 573.29L252.64 572.38L250.62 571.23L248.71 569.88L246.93 568.33L245.3 566.59L245.3 601.23L234.99 601.23L234.99 523.33L245.3 523.33L245.3 530.12L246.93 528.37L248.71 526.82L250.62 525.48L252.64 524.32L254.75 523.41L256.97 522.73L259.27 522.34L261.65 522.22L263.95 522.34L266.21 522.73L268.4 523.37L270.5 524.24L272.49 525.4L274.39 526.66L276.14 528.17L277.76 529.88L279.23 531.74L280.54 533.73L281.69 535.91L282.68 538.17L283.44 540.59L284 543.09L284.35 545.67L284.47 548.37ZM274.03 548.45L273.95 546.31L273.72 544.2L273.36 542.22L272.88 540.28L272.25 538.41L271.49 536.66L270.62 535.04L269.63 533.57L268.6 532.18L267.45 530.99L266.21 529.92L264.91 529.01L263.56 528.33L262.13 527.78L260.62 527.46L259.11 527.38L257.6 527.46L256.18 527.74L254.83 528.21L253.52 528.84L252.29 529.6L251.17 530.51L250.1 531.54L249.15 532.66L248.28 533.89L247.52 535.16L246.33 537.86L245.58 540.71L245.38 542.14L245.3 543.53L245.3 550.71L245.46 553.89L246.02 557.14L246.97 560.32L247.6 561.83L248.36 563.25L249.23 564.56L250.22 565.79L251.37 566.86L252.64 567.78L254.03 568.53L255.58 569.09L257.29 569.45L259.11 569.56L260.62 569.45L262.13 569.13L263.56 568.61L264.91 567.9L266.21 567.02L267.45 565.95L268.6 564.72L269.63 563.37L270.62 561.86L271.49 560.24L272.25 558.49L272.88 556.67L273.36 554.72L273.72 552.7L273.95 550.63L274.03 548.45ZM73.51 620.87L73.35 623.06L73.03 625.12L72.48 627.11L71.76 628.97L70.89 630.76L69.86 632.42L68.67 634.01L67.36 635.48L65.89 636.87L64.34 638.18L62.72 639.37L60.97 640.48L59.14 641.51L55.29 643.26L51.29 644.69L47.16 645.76L43.03 646.51L38.98 646.95L35.1 647.07L31.48 646.91L28.19 646.43L28.19 684.93L16.52 684.93L16.52 597.78L45.97 597.78L48.63 597.86L51.21 598.06L53.63 598.38L55.93 598.81L58.11 599.41L60.18 600.12L62.08 600.92L63.83 601.87L65.45 602.94L66.96 604.13L68.27 605.44L69.46 606.87L70.49 608.41L71.37 610.08L72.08 611.87L72.68 613.73L73.19 616.23L73.47 618.61L73.51 620.87ZM60.77 619.41L60.45 617.07L59.94 614.92L59.22 612.94L58.27 611.15L57.08 609.57L55.65 608.14L54.03 606.87L52.16 605.8L50.02 604.88L47.67 604.13L45.06 603.53L42.2 603.06L39.07 602.78L35.69 602.62L32.08 602.62L28.19 602.74L28.19 638.77L31.92 639.41L35.45 639.84L38.79 640.08L41.92 640.04L44.86 639.77L47.56 639.25L50.06 638.49L52.28 637.47L54.3 636.19L55.22 635.48L56.05 634.65L56.8 633.77L57.52 632.82L58.75 630.72L59.7 628.34L60.34 625.68L60.69 622.7L60.77 619.41Z" />
		<path id="Path 4" fill-rule="evenodd" class="shp0" d="M117.04 679.89L117.04 683.18L113.83 683.74L111.01 683.97L108.59 683.93L106.57 683.58L104.94 682.94L104.26 682.5L103.71 681.99L103.23 681.4L102.88 680.76L102.44 679.21L99.38 681.08L96.61 682.5L94.07 683.62L91.8 684.41L89.74 684.93L87.88 685.16L86.09 685.16L84.58 685.01L82.99 684.73L81.57 684.29L80.26 683.74L79.1 683.1L78.03 682.34L77.08 681.51L76.29 680.56L75.53 679.53L74.42 677.27L73.67 674.73L73.31 671.95L73.23 669.01L73.35 667.62L73.63 666.39L73.99 665.28L74.5 664.29L75.1 663.34L75.81 662.5L76.64 661.79L77.52 661.11L79.54 660.04L81.76 659.17L84.15 658.54L86.64 658.02L93.71 656.71L95.69 656.39L97.64 656.03L99.46 655.36L100.34 654.85L101.13 654.17L101.8 653.46L102.36 652.62L103.31 650.72L103.83 648.65L103.99 646.51L103.71 644.37L103.39 643.34L102.99 642.34L102.44 641.39L101.73 640.52L100.93 639.73L99.98 639.01L98.71 638.34L97.16 637.82L95.42 637.43L93.55 637.14L91.68 637.03L89.9 636.99L88.27 637.06L86.88 637.3L85.81 637.58L84.86 637.98L83.99 638.53L83.27 639.17L82.64 639.96L82.2 640.92L81.92 642.03L81.8 643.34L76.84 643.34L77.24 641.39L77.8 639.69L78.59 638.26L79.54 636.99L80.77 635.96L82.2 635.12L83.91 634.41L85.89 633.89L87.76 633.54L89.7 633.3L93.63 633.14L97.24 633.22L100.34 633.46L103.51 634.21L104.86 634.69L106.09 635.28L107.16 635.96L108.11 636.71L108.95 637.58L109.66 638.49L110.26 639.49L110.77 640.56L111.53 642.9L111.93 645.56L112.08 648.54L112.04 671.27L112 673.54L112.16 675.52L112.44 677.23L112.96 678.62L113.63 679.61L114.07 679.97L114.54 680.16L115.06 680.28L115.65 680.28L117.04 679.89ZM102.68 659.17L99.66 660.12L96.57 661L93.39 661.71L90.26 662.27L88.47 662.62L86.72 663.14L85.14 663.78L83.71 664.57L82.52 665.56L81.53 666.75L80.85 668.18L80.49 669.88L80.49 672.15L80.81 674.21L81.49 675.88L82.48 677.27L83.03 677.9L83.67 678.42L85.14 679.29L86.72 679.85L88.47 680.16L90.34 680.24L92.24 680.01L94.14 679.57L96.01 678.81L97.88 677.86L99.62 676.63L101.25 675.16L102.68 673.5L102.68 659.17Z" />
		<path id="Path 5" fill-rule="evenodd" class="shp1" d="M862.47 107.28L862.35 108.24L861.64 110.93L860.76 113.51L859.69 115.9L859.06 117.01L858.34 118L857.55 118.91L856.68 119.7L855.65 120.38L854.57 120.9L853.34 121.29L851.99 121.49L850.49 121.53L848.86 121.41L828.98 154.27L828.1 155.34L827.19 156.29L826.2 157.05L825.17 157.68L823.98 158.12L822.79 158.4L821.52 158.52L820.13 158.4L820.37 162.52L820.52 164.15L820.48 165.02L820.29 165.3L819.89 165.5L818.42 165.9L815.44 166.69L810.76 173.6L803.02 179.11L801.72 180.14L800.92 181.14L800.44 182.05L800.09 182.96L799.65 183.79L798.98 184.67L797.86 185.46L796.12 186.29L796.28 187.41L796.71 188.32L797.11 188.68L797.59 188.95L798.9 189.35L800.17 189.71L800.64 189.95L801 190.3L801.44 191.06L801.48 191.97L801.2 193L800.68 194.03L799.97 195.07L799.06 196.06L798.06 196.93L796.95 197.65L795.88 198.16L794.85 198.4L793.9 198.36L793.06 198L792.71 197.65L792.43 197.21L792.03 195.98L790.01 195.82L787.55 195.74L786.48 195.9L785.64 196.3L785.32 196.57L785.13 196.93L785.05 197.37L785.13 197.88L786.24 200.78L786.83 203.4L786.95 204.59L786.91 205.74L786.75 206.81L786.44 207.8L785.96 208.76L785.32 209.63L784.53 210.42L783.54 211.14L782.39 211.81L781.08 212.41L777.86 213.36L777.9 215.07L777.78 216.69L777.51 218.2L777.11 219.63L776.55 220.9L775.84 222.05L774.93 223.12L773.9 224.03L773.54 224.19L773.14 224.15L772.23 223.76L770.25 222.41L769.37 221.97L769.01 221.97L768.66 222.09L768.42 222.45L768.22 223L768.14 224.99L768.26 226.3L768.46 227.33L768.62 228.16L768.62 228.88L768.34 229.51L767.63 230.11L766.43 230.78L764.57 231.53L754.69 245.38L753.66 246.93L752.47 248.12L751.12 249L749.69 249.59L748.93 249.91L748.34 250.34L747.94 250.78L747.7 251.3L747.43 252.45L747.39 253.68L747.35 254.91L747.03 256.02L746.71 256.54L746.27 257.01L745.64 257.41L744.81 257.73L743.97 258.12L743.3 258.6L742.86 259.11L742.54 259.71L742.31 261.06L742.31 262.49L742.35 263.88L742.15 265.15L741.87 265.7L741.47 266.18L740.88 266.62L740.09 266.89L738.97 267.09L738.14 267.45L737.59 268.04L737.27 268.76L737.07 269.55L737.03 270.46L737.07 272.33L736.99 274.04L736.79 274.79L736.39 275.39L735.8 275.82L734.93 276.02L733.74 276.02L732.19 275.7L731.4 275.7L730.76 275.98L730.25 276.54L729.89 277.25L729.65 278.16L729.49 279.24L729.33 281.62L729.25 284.12L729.13 286.5L728.74 288.44L728.42 289.16L727.98 289.67L725.6 291.7L723.3 294L721.12 296.62L719.05 299.47L717.03 302.57L715.08 305.82L711.31 312.77L704.05 327.25L700.36 334.44L698.5 337.85L696.55 341.14L693.46 344.48L690.56 347.85L687.86 351.34L685.48 354.95L683.46 358.64L681.83 362.49L681.19 364.44L680.72 366.46L680.36 368.49L680.12 370.55L679.96 371.7L679.65 372.49L679.25 372.97L678.73 373.25L678.14 373.36L677.5 373.4L676.19 373.4L675.56 373.52L674.96 373.8L674.45 374.28L674.01 375.07L673.65 376.18L673.5 377.69L673.46 379.68L673.61 382.21L673.53 383.84L673.1 385.15L672.74 385.63L672.26 386.02L671.67 386.26L670.96 386.38L669.88 386.86L668.97 387.45L668.22 388.17L667.58 388.96L667.07 389.88L666.63 390.87L666.07 393.05L665.76 412.81L665.72 415.07L664.49 415.31L664.05 415.23L663.73 415.07L663.3 414.48L663.06 413.64L662.82 412.77L662.46 411.94L662.18 411.62L661.83 411.34L661.35 411.19L660.76 411.11L659.09 411.23L657.7 411.66L656.55 412.41L656.07 412.93L655.68 413.49L655 414.84L654.6 416.5L654.45 418.45L654.53 420.67L654.76 422.06L654.8 423.01L654.68 423.57L654.45 423.84L654.13 423.8L653.73 423.53L653.38 423.05L653.06 422.45L651.95 420.79L650.8 419.48L649.73 418.61L648.77 418.25L648.3 418.29L647.94 418.53L647.62 418.88L647.34 419.4L646.87 420.87L646.43 422.89L645.84 425.31L645 428.17L643.81 431.3L642.11 434.72L641.23 436.11L640.52 437.38L640.04 438.68L639.72 439.96L639.6 441.23L639.56 442.49L639.88 445L630.28 446.82L630.76 444.84L630.99 443.09L631.03 441.5L630.91 440.15L630.59 439.04L630.2 438.17L629.64 437.54L629.05 437.14L628.37 436.98L627.7 437.06L627.02 437.46L626.35 438.09L625.71 439L625.2 440.24L624.72 441.74L624.41 443.53L623.85 450.12L622.98 455.59L622.46 457.9L621.83 459.96L621.15 461.78L620.4 463.33L619.25 465.24L618.57 466.11L617.82 466.82L617.06 467.26L616.27 467.3L615.87 467.18L615.51 466.86L615.12 466.42L614.72 465.87L613.97 464.6L613.57 464.2L613.18 464.04L612.82 464.12L612.46 464.48L612.1 465.2L611.75 466.31L607.14 478.09L606.43 479.84L605.99 480.47L605.52 480.91L605 481.15L604.44 481.23L603.85 481.11L603.21 480.83L602.06 480.67L601.11 480.67L600.32 480.83L599.64 481.15L599.09 481.55L598.65 482.06L598.01 483.37L597.7 484.96L597.54 486.67L597.34 490L596.86 494.84L594.92 494.92L593.61 495.24L593.18 495.47L592.82 495.79L592.42 496.55L592.3 497.5L592.26 498.61L592.26 499.84L592.06 501.23L591.51 503.65L590.76 505.99L589.8 508.21L588.65 510.32L587.34 512.34L585.83 514.24L584.17 516.03L582.34 517.7L580.83 517.58L579.56 517.18L578.57 516.55L577.78 515.75L577.18 514.8L576.67 513.85L575.83 511.98L575.44 511.23L575 510.67L574.48 510.35L573.85 510.32L573.09 510.67L572.06 511.43L570.83 512.7L569.32 514.48L566.59 517.7L563.69 520.67L560.67 523.41L557.5 525.95L554.44 548.14L552.7 548.29L551.19 548.65L549.92 549.24L548.85 550L547.98 550.91L547.3 552.02L546.78 553.29L546.47 554.72L544.4 555.2L542.38 555.36L540.32 555.08L538.25 554.36L535.99 556.35L533.65 558.17L531.23 559.92L528.81 561.59L523.77 564.56L518.57 567.22L514.28 567.9L512.69 568.25L511.58 568.77L511.15 569.05L510.79 569.45L510.39 570.36L510.39 571.67L510.71 573.37L510.67 574.37L510.55 575.12L510.32 575.64L510.04 575.96L509.68 576.11L509.28 576.07L508.37 575.67L507.46 575L506.59 574.21L505.83 573.53L505.35 573.18L496.23 572.98L495.23 573.06L494.36 573.25L492.85 573.97L492.26 574.45L491.7 575.04L490.83 576.39L486.46 580.28L482.26 583.81L478.21 586.95L474.36 589.65L470.63 591.91L467.1 593.69L463.76 595.04L460.63 595.83L460.19 591.39L459.91 588.97L459.48 586.75L459.16 585.75L458.72 584.92L458.21 584.17L457.57 583.61L456.78 583.26L455.87 583.1L454.79 583.22L453.57 583.57L450.79 576.86L450.23 575.72L449.6 574.88L448.88 574.25L448.17 573.81L446.62 573.37L445.07 573.18L443.65 572.82L443.01 572.46L442.41 571.94L441.98 571.19L441.58 570.2L441.34 568.89L441.22 567.22L441.07 566.43L440.63 565.64L439.99 564.8L439.2 564.05L438.29 563.38L437.37 562.86L436.46 562.54L435.63 562.46L433.84 562.11L432.14 561.51L430.43 560.67L428.72 559.6L427.06 558.3L425.43 556.71L423.8 554.88L422.21 552.82L419.87 552.74L417.77 552.98L415.9 553.61L414.28 554.57L413.48 555.16L412.85 555.83L411.7 557.38L410.75 559.21L409.99 561.23L409.6 562.14L409.08 562.74L408.48 563.01L407.89 563.06L407.37 562.86L406.94 562.5L406.7 561.95L406.7 561.27L406.82 559.88L406.58 558.61L406.02 557.46L405.11 556.47L403.88 555.63L402.37 555L400.63 554.6L398.6 554.49L395.55 554.36L392.93 553.97L390.7 553.33L388.88 552.54L387.33 551.59L386.14 550.55L385.15 549.4L384.43 548.22L383.88 547.06L383.48 545.91L383.01 543.89L382.69 542.42L382.49 541.99L382.25 541.82L374.63 541.35L368.4 540.87L361.58 540.16L358.2 539.68L354.95 539.13L351.97 538.45L349.31 537.66L347.09 536.74L345.43 535.68L344.83 535.12L344.35 534.48L344.12 533.85L344.04 533.13L344 532.06L343.8 531.23L343.44 530.56L342.93 530.08L341.73 529.44L339.04 528.65L338.56 528.45L338.28 528.22L338.28 527.9L338.52 527.54L339.16 527.1L340.19 526.58L341.14 525.99L341.81 525.2L342.29 524.28L342.53 523.25L342.57 522.14L342.45 520.95L342.09 519.76L341.62 518.57L340.94 517.38L340.15 516.31L339.24 515.28L338.2 514.4L337.05 513.65L335.82 513.13L334.51 512.78L333.12 512.7L332.89 487.3L333.6 485.47L334.04 483.77L334.31 482.22L334.39 480.79L334.27 479.56L334.04 478.45L333.68 477.54L333.2 476.78L332.65 476.23L332.01 475.83L331.38 475.63L330.7 475.67L330.03 475.87L329.35 476.27L328.76 476.9L328.24 477.78L327.45 479L326.61 479.84L325.82 480.27L325.15 480.31L324.87 480.16L324.63 479.92L324.39 479.08L324.55 477.78L325.11 476.03L332.21 456.03L339.63 435.99L347.29 415.91L355.23 395.75L363.44 375.55L371.97 355.31L380.74 334.99L389.79 314.71L380.03 402.89L391.34 402.89L396.7 330.43L437.26 399.68L474.6 326.7L483.53 400.39L497.93 400.63L481.74 297.21L438.88 377.33L397.05 300.43L401.3 292.05L405.71 283.68L410.19 275.39L414.83 267.13L419.63 258.88L424.56 250.74L429.59 242.61L434.84 234.51L440.19 226.49L445.75 218.56L451.42 210.62L457.3 202.76L463.33 194.99L469.56 187.25L475.95 179.55L482.54 171.93L487.89 165.86L492.85 159.75L497.42 153.52L501.54 147.17L505.27 140.66L508.61 133.95L511.5 127.05L513.97 119.9L518.61 113.32L523.85 106.17L529.6 98.75L532.66 95.02L535.83 91.29L539.09 87.56L542.46 83.91L545.95 80.34L549.52 76.89L553.17 73.59L556.9 70.5L560.67 67.56L564.56 64.86L558.25 76.37L554.96 81.97L551.51 87.4L547.85 92.64L544.01 97.56L541.98 99.94L539.88 102.24L537.7 104.47L535.47 106.57L534.05 107.6L532.81 108.67L531.7 109.86L530.75 111.09L529.96 112.44L529.28 113.83L528.81 115.3L528.45 116.85L526.58 123.59L522.93 130.94L522.97 131.93L523.17 132.76L523.41 133.44L523.77 133.99L524.2 134.39L524.68 134.67L525.75 134.94L526.94 134.9L528.17 134.67L530.27 133.99L531.86 126.93L535 124.78L537.89 122.64L540.51 120.5L542.74 118.32L543.69 117.2L544.56 116.09L545.27 114.94L545.87 113.79L546.31 112.6L546.63 111.41L546.78 110.18L546.78 108.91L547.58 108.39L548.49 108.04L549.48 107.84L550.63 107.8L551.98 108L553.49 108.39L555.24 109.11L557.18 110.14L565.99 101.17L575 92.56L584.13 84.11L593.41 75.85L602.86 67.8L612.42 59.94L622.1 52.24L631.75 44.7L628.89 49.07L625.6 53.31L621.99 57.44L618.14 61.49L614.09 65.46L609.84 69.39L601.03 77.16L592.06 85.02L587.62 89.03L583.21 93.12L578.97 97.24L574.88 101.57L571.03 106.01L567.38 110.66L566.55 111.33L565.56 111.77L564.4 111.97L563.13 111.93L562.62 113.51L561.82 115.26L560.75 117.09L559.44 118.91L557.97 120.7L556.31 122.4L554.52 123.91L552.58 125.18L551.47 125.97L550.51 126.85L548.93 128.63L548.09 129.78L547.5 130.82L547.14 131.77L547.02 132.64L547.06 133.4L547.3 134.03L547.7 134.59L548.25 134.94L548.97 135.22L549.8 135.34L550.75 135.3L551.78 135.1L552.93 134.71L554.12 134.19L555.36 133.44L556.67 132.52L561.59 127.13L566.47 121.69L576.03 110.78L585.24 100.1L594.17 90.06L598.45 85.34L602.7 80.85L606.78 76.69L610.84 72.88L614.72 69.46L618.53 66.49L622.22 63.95L625.84 61.92L625.2 63.51L624.84 64.82L624.76 65.85L624.88 66.65L625.24 67.24L625.76 67.6L626.43 67.8L627.22 67.84L629.09 67.44L631.11 66.57L633.06 65.42L634.84 64.11L639.76 60.26L644.6 56.37L649.37 52.36L654.09 48.31L658.73 44.15L663.3 39.9L667.82 35.61L672.22 31.21L675.68 31.17L676.27 28.99L677.03 27.16L677.9 25.65L678.89 24.42L679.92 23.43L681.03 22.6L683.3 21.41L685.56 20.45L687.62 19.42L688.5 18.79L689.29 18.03L689.96 17.08L690.48 15.93L691.19 15.3L692.03 15.06L692.98 15.34L693.53 15.69L694.09 16.21L694.41 16.84L694.57 17.48L694.61 18.11L694.49 18.79L693.77 20.18L693.22 20.89L692.51 21.65L689.53 22.88L681.27 27.56L680.6 28.07L680.16 28.67L679.88 29.27L679.81 29.94L679.92 30.57L680.2 31.17L680.64 31.69L681.19 32.08L681.91 32.4L682.74 32.52L683.69 32.48L684.76 32.2L685.92 31.69L687.15 30.85L688.46 29.78L689.8 28.31L690.4 27.64L691.04 27.24L691.63 27.04L692.15 27.08L692.58 27.32L692.9 27.8L693.02 28.43L692.9 29.23L691.99 32.56L690.92 35.73L689.53 38.67L688.73 40.02L687.82 41.29L664.25 61.65L652.38 72.04L640.76 82.44L635.08 87.68L629.68 92.88L624.33 98.04L619.13 103.24L614.17 108.39L609.44 113.51L604.96 118.63L600.79 123.71L600.28 124.47L600 125.1L599.92 125.62L600.04 126.05L600.36 126.41L600.76 126.65L601.98 126.89L603.45 126.85L605.04 126.53L606.55 125.97L607.78 125.22L625.56 108.39L642.42 92.36L650.68 84.7L658.77 77.32L666.79 70.22L674.69 63.51L682.54 57.12L690.32 51.17L698.1 45.62L705.88 40.53L713.66 35.93L721.51 31.84L725.44 30.02L729.41 28.31L733.38 26.76L737.39 25.34L735.72 30.22L733.97 34.3L732.15 37.6L731.19 38.95L730.2 40.14L729.25 41.13L728.26 41.92L727.23 42.56L726.2 42.96L725.12 43.19L724.05 43.27L722.98 43.15L721.87 42.84L721.27 45.49L721.12 47.6L721.24 48.47L721.43 49.19L721.79 49.74L722.23 50.18L722.82 50.46L723.5 50.61L724.33 50.61L725.28 50.46L727.54 49.66L730.36 48.31L748.02 38.27L749.09 37.8L750.05 37.56L750.84 37.56L751.51 37.72L752.03 38.03L752.47 38.51L752.74 39.11L752.94 39.78L753.02 41.29L752.67 42.92L751.91 44.46L751.43 45.1L750.84 45.69L748.26 48.39L745.56 51.09L742.7 53.75L739.73 56.41L733.54 61.69L726.99 66.89L720.28 72.04L713.46 77.08L700 87.04L698.66 87.88L697.26 88.47L694.65 89.23L693.42 89.58L692.34 90.14L691.39 90.89L690.6 91.97L689.93 94.98L689.41 96.33L688.65 97.56L686.39 100.1L684.89 101.89L683.69 103.47L683.38 104.07L683.3 104.51L683.34 104.66L683.5 104.74L684.05 104.7L685.04 104.35L686.43 103.63L690.88 100.97L703.26 91.05L714.45 82.32L724.49 74.74L733.38 68.35L741.16 63.12L747.9 58.95L753.58 55.85L756.04 54.7L758.22 53.79L758.5 56.13L758.42 58.15L758.06 59.86L757.39 61.21L756.91 61.77L756.36 62.16L755.76 62.48L755.01 62.68L754.17 62.76L753.26 62.72L751.16 62.24L749.49 65.18L747.62 67.84L745.56 70.26L743.3 72.44L742.23 72.2L741.24 72.16L740.36 72.24L739.57 72.52L738.85 72.92L738.22 73.47L737.63 74.19L737.11 75.02L729.73 80.62L722.62 86.13L715.68 91.69L708.93 97.24L702.31 103L695.72 108.87L689.21 114.98L682.7 121.33L681.11 123.16L680.08 124.78L679.65 126.13L679.65 126.65L679.76 127.09L680.04 127.4L680.44 127.56L681 127.6L681.67 127.44L683.42 126.69L685.72 125.14L694.53 118.16L703.85 110.46L722.74 94.58L731.75 87.28L736 83.95L740.01 80.97L743.82 78.35L747.31 76.13L750.48 74.35L753.3 73.11L757.11 70.97L758.9 69.74L760.64 68.43L762.31 67L763.93 65.5L765.48 63.91L766.99 62.24L767.35 61.81L767.74 61.45L768.54 61.17L769.45 61.29L770.44 61.92L776.24 65.97L777.31 66.41L778.38 66.65L779.41 66.73L780.44 66.57L781.43 66.29L782.39 65.81L783.3 65.18L784.21 64.43L784.61 63.67L785.13 63.07L785.72 62.64L786.44 62.4L787.31 62.4L788.3 62.6L789.45 63.07L790.8 63.79L791.68 64.54L792.55 65.14L793.42 65.58L794.34 65.81L795.25 65.97L796.12 65.97L797.99 65.65L799.81 65.02L801.59 64.19L805.05 62.32L819.18 53.55L820.72 52.84L821.87 52.56L822.59 52.68L822.79 52.88L822.91 53.11L822.87 53.83L822.51 54.74L821.87 55.77L821 56.92L817.23 59.98L813.7 63.19L810.37 66.57L807.27 70.06L804.37 73.63L801.64 77.36L799.09 81.17L796.71 85.1L795.64 87.68L795.05 89.86L795.01 90.78L795.09 91.53L795.36 92.12L795.76 92.56L796.36 92.84L797.15 92.92L798.14 92.8L799.29 92.48L802.27 91.13L806.12 88.83L805.25 90.66L804.22 92.36L803.02 93.95L801.72 95.38L801.36 97.6L801.36 99.47L801.56 100.22L801.83 100.86L802.23 101.37L802.79 101.73L803.46 101.97L804.26 102.05L805.21 101.97L806.32 101.77L808.98 100.82L812.35 99.15L814.18 97.84L815.96 96.73L817.71 95.78L819.37 95.02L821 94.55L822.59 94.27L824.1 94.27L825.56 94.55L828.74 94.98L831.87 95.54L834.97 96.37L837.99 97.52L838.98 98.12L839.65 98.75L840.05 99.39L840.13 100.02L840.05 100.66L839.77 101.33L838.9 102.68L833.66 107.76L828.46 113.04L818.1 123.67L812.86 128.83L807.51 133.67L804.77 135.98L802.03 138.16L799.21 140.22L796.4 142.13L795.17 143.12L794.34 144.03L793.9 144.86L793.86 145.66L794.26 146.41L795.05 147.13L796.24 147.8L797.86 148.4L795.64 150.58L793.78 152.56L792.31 154.39L791.2 155.98L790.4 157.4L790.01 158.56L789.89 159.43L790.13 160.06L790.68 160.38L791.52 160.38L792.63 160.06L794.05 159.39L795.72 158.32L797.63 156.85L799.81 154.98L802.23 152.72L803.94 150.86L805.48 148.99L808.38 145.22L811 141.61L813.54 138.28L814.85 136.77L816.2 135.42L817.63 134.23L819.14 133.2L820.76 132.36L822.51 131.77L824.41 131.45L826.48 131.33L830.25 127.6L834.1 124.07L837.95 120.7L841.88 117.56L845.84 114.59L849.85 111.77L853.9 109.19L857.99 106.77L859.46 106.21L860.25 106.09L861.04 106.09L861.72 106.25L862.23 106.65L862.47 107.28ZM607.74 391.46L607.06 350.15L593.41 350.15L593.41 389.08L589.6 390.31L585.83 391.34L582.1 392.18L578.45 392.81L574.84 393.21L571.27 393.45L567.82 393.49L564.4 393.32L561.11 392.97L557.9 392.41L554.8 391.66L551.78 390.75L548.93 389.64L546.15 388.33L543.53 386.86L541.03 385.19L538.69 383.33L536.51 381.34L534.48 379.12L532.62 376.78L530.95 374.24L529.44 371.5L528.13 368.65L527.02 365.59L526.11 362.37L525.39 359L524.92 355.47L524.64 351.78L524.6 347.93L524.84 343.92L525.27 339.75L525.99 335.47L526.74 332.13L527.69 328.96L528.84 326.06L530.19 323.21L531.66 320.51L533.33 317.97L535.16 315.63L537.1 313.4L539.17 311.34L541.39 309.47L543.73 307.77L546.15 306.22L548.69 304.87L551.27 303.68L553.97 302.69L556.75 301.86L559.52 301.22L562.42 300.74L565.32 300.47L568.25 300.39L571.19 300.47L574.17 300.78L577.14 301.26L580.08 301.94L583.01 302.81L585.95 303.88L588.81 305.19L591.67 306.66L594.44 308.32L597.14 310.23L599.8 312.33L602.34 314.63L607.06 303.01L603.33 301.06L599.6 299.32L595.83 297.77L592.06 296.42L588.33 295.27L584.6 294.35L580.83 293.6L577.06 293.08L573.29 292.77L569.52 292.69L565.75 292.81L562.02 293.12L558.25 293.64L554.52 294.39L550.79 295.35L547.06 296.54L543.65 297.85L540.4 299.36L537.26 301.02L534.28 302.89L531.47 304.95L528.77 307.13L526.27 309.47L523.89 311.98L521.7 314.59L519.68 317.33L517.81 320.19L516.15 323.13L514.64 326.14L513.29 329.16L512.18 332.33L511.23 335.55L510.47 338.84L509.92 342.17L509.52 345.51L509.36 348.88L509.44 352.25L509.68 355.63L510.16 358.96L510.83 362.29L511.74 365.59L512.89 368.84L514.24 372.06L515.87 375.19L517.66 378.25L519.76 381.22L522.06 384.08L524.64 386.86L526.43 388.61L528.29 390.23L530.19 391.82L532.18 393.24L534.24 394.6L536.31 395.87L540.67 398.09L545.24 399.91L550 401.38L554.96 402.34L560.12 402.89L565.48 403.01L571.03 402.73L576.75 401.98L582.62 400.79L588.69 399.16L594.88 397.06L601.23 394.48L607.74 391.46ZM697.58 322.53L697.5 319.83L697.18 317.05L696.59 314.16L695.92 311.93L695.09 309.87L694.05 307.93L692.82 306.1L691.47 304.43L689.88 302.93L688.14 301.54L686.23 300.27L684.17 299.16L681.95 298.2L679.57 297.37L677.03 296.7L674.33 296.14L671.47 295.78L668.46 295.55L665.32 295.47L630.99 295.47L630.99 397.34L644.52 397.34L644.52 352.29L648.37 352.85L652.62 353.05L657.18 352.89L661.91 352.41L666.75 351.5L671.55 350.27L676.27 348.6L680.76 346.5L682.9 345.31L684.92 344.04L686.87 342.61L688.65 341.1L690.36 339.48L691.91 337.73L693.3 335.9L694.49 333.96L695.52 331.86L696.35 329.67L696.99 327.37L697.39 325.07L697.58 322.53ZM682.31 318.05L682.66 320.78L682.58 324.63L682.15 327.97L681.39 331.1L680.28 333.92L678.85 336.38L678.06 337.49L677.15 338.48L676.15 339.44L675.08 340.31L672.74 341.86L670.12 343.01L667.23 343.88L664.05 344.48L660.64 344.79L656.95 344.83L653.02 344.6L648.89 344.08L644.52 343.32L644.52 301.26L649.09 301.14L653.34 301.14L657.26 301.3L660.92 301.66L664.25 302.17L667.31 302.89L670.08 303.76L672.58 304.87L674.76 306.1L676.67 307.57L678.34 309.24L679.73 311.14L680.84 313.2L681.71 315.51L682.31 318.05Z" />
	</g>
</svg>